<?xml version="1.0" encoding="UTF-8" standalone="no"?>
<!-- Generator: Adobe Illustrator 16.0.0, SVG Export Plug-In . SVG Version: 6.00 Build 0)  -->

<svg
   xmlns:dc="http://purl.org/dc/elements/1.1/"
   xmlns:cc="http://creativecommons.org/ns#"
   xmlns:rdf="http://www.w3.org/1999/02/22-rdf-syntax-ns#"
   xmlns:svg="http://www.w3.org/2000/svg"
   xmlns="http://www.w3.org/2000/svg"
   xmlns:xlink="http://www.w3.org/1999/xlink"
   xmlns:sodipodi="http://sodipodi.sourceforge.net/DTD/sodipodi-0.dtd"
   xmlns:inkscape="http://www.inkscape.org/namespaces/inkscape"
   version="1.1"
   id="Layer_1"
   x="0px"
   y="0px"
   width="300.00293"
   height="363.4736"
   viewBox="0 0 300.00293 363.4736"
   enable-background="new 0 0 820 952"
   xml:space="preserve"
   inkscape:version="0.48.2 r9819"
   sodipodi:docname="Insigne_Romanum.svg"><metadata
   id="metadata1554"><rdf:RDF><cc:Work
       rdf:about=""><dc:format>image/svg+xml</dc:format><dc:type
         rdf:resource="http://purl.org/dc/dcmitype/StillImage" /><dc:title /></cc:Work></rdf:RDF></metadata><defs
   id="defs1552"><style
     type="text/css"
     id="style6-48">
   
    .str0 {stroke:black;stroke-width:0.2646}
    .str1 {stroke:#D4AE05;stroke-width:0.3969}
    .fil4 {fill:none}
    .fil0 {fill:#005121}
    .fil2 {fill:#00722E}
    .fil1 {fill:#00923F}
    .fil5 {fill:#0A73B9}
    .fil3 {fill:white}
   
  </style><style
     id="style561-2"
     type="text/css">.str2 {stroke:black}
    .str0 {stroke:#1F1A17;stroke-width:0.0762}
    .str1 {stroke:black;stroke-width:1.214}
    .fil0 {fill:#00923F}
    .fil1 {fill:#1F1A17}
    .fil9 {fill:#838281}
    .fil4 {fill:#C2C1C1}
    .fil3 {fill:#DA251D}
    .fil6 {fill:#DEDEDD}
    .fil5 {fill:white}
    .fil8 {fill:black}
    .fil2 {fill:#DC3623}
    .fil7 {fill:#1F1A17;fill-rule:nonzero}</style><style
     type="text/css"
     id="style561-7">.str2 {stroke:black}
    .str0 {stroke:#1F1A17;stroke-width:0.0762}
    .str1 {stroke:black;stroke-width:1.214}
    .fil0 {fill:#00923F}
    .fil1 {fill:#1F1A17}
    .fil9 {fill:#838281}
    .fil4 {fill:#C2C1C1}
    .fil3 {fill:#DA251D}
    .fil6 {fill:#DEDEDD}
    .fil5 {fill:white}
    .fil8 {fill:black}
    .fil2 {fill:#DC3623}
    .fil7 {fill:#1F1A17;fill-rule:nonzero}</style><style
     id="style6-4"
     type="text/css">
   
    .str0 {stroke:black;stroke-width:0.2646}
    .str1 {stroke:#D4AE05;stroke-width:0.3969}
    .fil4 {fill:none}
    .fil0 {fill:#005121}
    .fil2 {fill:#00722E}
    .fil1 {fill:#00923F}
    .fil5 {fill:#0A73B9}
    .fil3 {fill:white}
   
  </style><style
     type="text/css"
     id="style561-8">.str2 {stroke:black}
    .str0 {stroke:#1F1A17;stroke-width:0.0762}
    .str1 {stroke:black;stroke-width:1.214}
    .fil0 {fill:#00923F}
    .fil1 {fill:#1F1A17}
    .fil9 {fill:#838281}
    .fil4 {fill:#C2C1C1}
    .fil3 {fill:#DA251D}
    .fil6 {fill:#DEDEDD}
    .fil5 {fill:white}
    .fil8 {fill:black}
    .fil2 {fill:#DC3623}
    .fil7 {fill:#1F1A17;fill-rule:nonzero}</style><style
     id="style6-9"
     type="text/css">
   
    .str0 {stroke:black;stroke-width:0.2646}
    .str1 {stroke:#D4AE05;stroke-width:0.3969}
    .fil4 {fill:none}
    .fil0 {fill:#005121}
    .fil2 {fill:#00722E}
    .fil1 {fill:#00923F}
    .fil5 {fill:#0A73B9}
    .fil3 {fill:white}
   
  </style><g
     id="s"><g
       id="c"><path
         id="t"
         d="M 0,0 0,1 0.5,1 0,0 z"
         transform="matrix(0.9510565,0.309017,-0.309017,0.9510565,0,-1)"
         inkscape:connector-curvature="0" /><use
         height="632"
         width="549"
         y="0"
         x="0"
         xlink:href="#t"
         transform="scale(-1,1)"
         id="use5409" /></g><g
       id="a"><use
         height="632"
         width="549"
         y="0"
         x="0"
         xlink:href="#c"
         transform="matrix(0.309017,0.9510565,-0.9510565,0.309017,0,0)"
         id="use5412" /><use
         height="632"
         width="549"
         y="0"
         x="0"
         xlink:href="#c"
         transform="matrix(-0.809017,0.5877853,-0.5877853,-0.809017,0,0)"
         id="use5414" /></g><use
       height="632"
       width="549"
       y="0"
       x="0"
       xlink:href="#a"
       transform="scale(-1,1)"
       id="use5416" /></g><g
     id="s-1"><g
       id="c-7"><path
         id="t-4"
         d="M 0,0 L 0,1 L 0.5,1 L 0,0 z"
         transform="matrix(0.9510565,0.309017,-0.309017,0.9510565,0,-1)" /><use
         height="632"
         width="549"
         y="0"
         x="0"
         xlink:href="#t-4"
         transform="scale(-1,1)"
         id="use5409-0" /></g><g
       id="a-9"><use
         height="632"
         width="549"
         y="0"
         x="0"
         xlink:href="#c-7"
         transform="matrix(0.309017,0.9510565,-0.9510565,0.309017,0,0)"
         id="use5412-4" /><use
         height="632"
         width="549"
         y="0"
         x="0"
         xlink:href="#c-7"
         transform="matrix(-0.809017,0.5877853,-0.5877853,-0.809017,0,0)"
         id="use5414-8" /></g><use
       height="632"
       width="549"
       y="0"
       x="0"
       xlink:href="#a-9"
       transform="scale(-1,1)"
       id="use5416-8" /></g><style
     type="text/css"
     id="style6">
   
    .str0 {stroke:black;stroke-width:0.2646}
    .str1 {stroke:#D4AE05;stroke-width:0.3969}
    .fil4 {fill:none}
    .fil0 {fill:#005121}
    .fil2 {fill:#00722E}
    .fil1 {fill:#00923F}
    .fil5 {fill:#0A73B9}
    .fil3 {fill:white}
   
  </style><style
     id="style561"
     type="text/css">.str2 {stroke:black}
    .str0 {stroke:#1F1A17;stroke-width:0.0762}
    .str1 {stroke:black;stroke-width:1.214}
    .fil0 {fill:#00923F}
    .fil1 {fill:#1F1A17}
    .fil9 {fill:#838281}
    .fil4 {fill:#C2C1C1}
    .fil3 {fill:#DA251D}
    .fil6 {fill:#DEDEDD}
    .fil5 {fill:white}
    .fil8 {fill:black}
    .fil2 {fill:#DC3623}
    .fil7 {fill:#1F1A17;fill-rule:nonzero}</style><g
     id="s-7"><g
       id="c-4"><path
         inkscape:connector-curvature="0"
         transform="matrix(0.9510565,0.309017,-0.309017,0.9510565,0,-1)"
         d="M 0,0 0,1 0.5,1 0,0 z"
         id="t-0" /><use
         id="use5409-9"
         transform="scale(-1,1)"
         xlink:href="#t-0"
         x="0"
         y="0"
         width="549"
         height="632" /></g><g
       id="a-4"><use
         id="use5412-8"
         transform="matrix(0.309017,0.9510565,-0.9510565,0.309017,0,0)"
         xlink:href="#c-4"
         x="0"
         y="0"
         width="549"
         height="632" /><use
         id="use5414-82"
         transform="matrix(-0.809017,0.5877853,-0.5877853,-0.809017,0,0)"
         xlink:href="#c-4"
         x="0"
         y="0"
         width="549"
         height="632" /></g><use
       id="use5416-4"
       transform="scale(-1,1)"
       xlink:href="#a-4"
       x="0"
       y="0"
       width="549"
       height="632" /></g><g
     id="s-17"><g
       id="c-40"><path
         id="t-9"
         d="M 0,0 L 0,1 L 0.5,1 L 0,0 z"
         transform="matrix(0.9510565,0.309017,-0.309017,0.9510565,0,-1)" /><use
         height="632"
         width="549"
         y="0"
         x="0"
         xlink:href="#t-9"
         transform="scale(-1,1)"
         id="use5409-4" /></g><g
       id="a-8"><use
         height="632"
         width="549"
         y="0"
         x="0"
         xlink:href="#c-40"
         transform="matrix(0.309017,0.9510565,-0.9510565,0.309017,0,0)"
         id="use5412-82" /><use
         height="632"
         width="549"
         y="0"
         x="0"
         xlink:href="#c-40"
         transform="matrix(-0.809017,0.5877853,-0.5877853,-0.809017,0,0)"
         id="use5414-4" /></g><use
       height="632"
       width="549"
       y="0"
       x="0"
       xlink:href="#a-8"
       transform="scale(-1,1)"
       id="use5416-5" /></g><clipPath
     clipPathUnits="userSpaceOnUse"
     id="clipPath4702"><polygon
       transform="matrix(0.40328055,0,0,0.40328055,-15.564109,-11.455688)"
       style="fill-opacity:1;stroke-miterlimit:10"
       id="polygon4704"
       points="517.327,862.415 529.428,853.323 540.177,844.862 549.428,837.278 562.828,825.768 576.448,813.393 588.479,801.848 601.385,788.764 609.259,780.396 616.475,772.457 623.923,763.969 634.676,751.149 642.531,741.326 651.605,729.449 659.016,719.304 667.618,706.95 673.851,697.586 680.509,687.156 684.299,681.007 691.439,668.964 697.448,658.324 703.379,647.319 711.005,632.333 716.823,620.176 722.388,607.888 728.91,592.508 733.25,581.61 736.786,572.266 741.985,557.676 746.441,544.199 750.366,531.641 753.948,518.929 757.308,506.275 760.887,491.567 764.072,477.121 766.394,465.565 768.541,453.862 770.536,441.862 772.537,428.381 774.287,414.896 775.598,403.312 776.719,391.833 777.862,377.749 778.979,360.396 779.395,349.209 780,332.9 780,30.9 41.101,30.9 41.101,332.9 41.706,349.209 42.122,360.396 43.238,377.749 44.382,391.833 45.503,403.312 46.812,414.896 48.562,428.381 50.562,441.862 52.56,453.862 54.707,465.565 57.028,477.121 60.214,491.567 63.793,506.275 67.15,518.929 70.732,531.641 74.659,544.199 79.115,557.676 84.312,572.266 87.851,581.61 92.188,592.508 98.713,607.888 104.275,620.176 110.096,632.333 117.722,647.319 123.651,658.324 129.661,668.964 136.802,681.007 140.592,687.156 147.25,697.586 153.48,706.95 162.085,719.304 169.495,729.449 178.568,741.326 186.425,751.149 197.178,763.969 204.626,772.457 211.842,780.396 219.716,788.764 232.622,801.848 244.651,813.393 258.271,825.768 271.673,837.278 280.924,844.862 291.673,853.323 303.771,862.415 315.658,870.924 329.093,880.054 345.925,890.79 362.194,900.44 378.389,909.332 387.924,914.221 395.731,918.021 403.438,921.551 410.699,924.5 417.662,921.551 425.367,918.021 433.177,914.221 442.712,909.332 458.906,900.44 475.176,890.79 492.008,880.054 505.441,870.924 "
       stroke-miterlimit="10" /></clipPath></defs><sodipodi:namedview
   pagecolor="#ffffff"
   bordercolor="#666666"
   borderopacity="1"
   objecttolerance="10"
   gridtolerance="10"
   guidetolerance="10"
   inkscape:pageopacity="0"
   inkscape:pageshadow="2"
   inkscape:window-width="1857"
   inkscape:window-height="1178"
   id="namedview1550"
   showgrid="false"
   fit-margin-bottom="1"
   fit-margin-top="0"
   fit-margin-left="0"
   fit-margin-right="0"
   inkscape:zoom="1.4023294"
   inkscape:cx="65.057177"
   inkscape:cy="164.9425"
   inkscape:window-x="55"
   inkscape:window-y="-8"
   inkscape:window-maximized="1"
   inkscape:current-layer="g4686" />
<polygon
   stroke-miterlimit="10"
   points="505.441,870.924 517.327,862.415 529.428,853.323 540.177,844.862 549.428,837.278 562.828,825.768 576.448,813.393 588.479,801.848 601.385,788.764 609.259,780.396 616.475,772.457 623.923,763.969 634.676,751.149 642.531,741.326 651.605,729.449 659.016,719.304 667.618,706.95 673.851,697.586 680.509,687.156 684.299,681.007 691.439,668.964 697.448,658.324 703.379,647.319 711.005,632.333 716.823,620.176 722.388,607.888 728.91,592.508 733.25,581.61 736.786,572.266 741.985,557.676 746.441,544.199 750.366,531.641 753.948,518.929 757.308,506.275 760.887,491.567 764.072,477.121 766.394,465.565 768.541,453.862 770.536,441.862 772.537,428.381 774.287,414.896 775.598,403.312 776.719,391.833 777.862,377.749 778.979,360.396 779.395,349.209 780,332.9 780,30.9 41.101,30.9 41.101,332.9 41.706,349.209 42.122,360.396 43.238,377.749 44.382,391.833 45.503,403.312 46.812,414.896 48.562,428.381 50.562,441.862 52.56,453.862 54.707,465.565 57.028,477.121 60.214,491.567 63.793,506.275 67.15,518.929 70.732,531.641 74.659,544.199 79.115,557.676 84.312,572.266 87.851,581.61 92.188,592.508 98.713,607.888 104.275,620.176 110.096,632.333 117.722,647.319 123.651,658.324 129.661,668.964 136.802,681.007 140.592,687.156 147.25,697.586 153.48,706.95 162.085,719.304 169.495,729.449 178.568,741.326 186.425,751.149 197.178,763.969 204.626,772.457 211.842,780.396 219.716,788.764 232.622,801.848 244.651,813.393 258.271,825.768 271.673,837.278 280.924,844.862 291.673,853.323 303.771,862.415 315.658,870.924 329.093,880.054 345.925,890.79 362.194,900.44 378.389,909.332 387.924,914.221 395.731,918.021 403.438,921.551 410.699,924.5 417.662,921.551 425.367,918.021 433.177,914.221 442.712,909.332 458.906,900.44 475.176,890.79 492.008,880.054 "
   id="polygon8"
   style="fill:#bc2e2e;fill-opacity:1;"
   transform="matrix(0.40328055,0,0,0.40328055,-15.564109,-11.455688)" />





































































































































































































































































<g
   style="stroke-width:0.88760686;stroke-miterlimit:4;stroke-dasharray:none"
   id="g11618-9-0-2"
   transform="matrix(1.1266249,0,0,1.1266249,-491.80563,121.48382)" /><path
   sodipodi:nodetypes="ccccc"
   inkscape:connector-curvature="0"
   id="path1309"
   d="m 96.625,-35.095255 c 0,0 0.252598,285.630785 1.406249,418.923645 l 106.406251,0 c 0.70969,-131.7123 -0.125,-418.13463 -0.125,-418.13463 z"
   style="fill-opacity:1;fill-rule:evenodd"
   clip-path="url(#clipPath4702)" /><g
   id="g4686"
   transform="matrix(0.403493,0,0,0.403493,-0.38877117,-2.0809742)"><path
     inkscape:connector-curvature="0"
     style="fill:#ffffff;fill-opacity:1;fill-rule:evenodd;stroke:#000000;stroke-width:0.99999964px;stroke-linecap:butt;stroke-linejoin:miter;stroke-opacity:1"
     d="m 311.65169,252.01785 64.12973,-64.00234 63.68736,63.81413 32.07784,-32.01412 -63.68736,-63.81415 59.18095,-59.063355 -31.99214,-32.055813 -59.18095,59.063358 -60.03187,-60.151322 -32.07784,32.014121 60.03187,60.151321 -64.12973,64.00236 31.99214,32.05581 z"
     id="path1311"
     sodipodi:nodetypes="ccccccccccccc" /><use
     x="0"
     y="0"
     xlink:href="#path1311"
     id="use1313"
     transform="translate(0.660586,264.23431)"
     width="744.09448"
     height="1052.3622" /><use
     x="0"
     y="0"
     xlink:href="#path1311"
     id="use1315"
     transform="translate(1.321172,528.46862)"
     width="744.09448"
     height="1052.3622" /></g><polygon
   transform="matrix(0.40328055,0,0,0.40328055,-15.564109,-11.455688)"
   style="fill:none;stroke:#4b1212;stroke-width:5;stroke-miterlimit:10;stroke-opacity:1;fill-opacity:1"
   id="polygon4698"
   points="505.441,870.924 517.327,862.415 529.428,853.323 540.177,844.862 549.428,837.278 562.828,825.768 576.448,813.393 588.479,801.848 601.385,788.764 609.259,780.396 616.475,772.457 623.923,763.969 634.676,751.149 642.531,741.326 651.605,729.449 659.016,719.304 667.618,706.95 673.851,697.586 680.509,687.156 684.299,681.007 691.439,668.964 697.448,658.324 703.379,647.319 711.005,632.333 716.823,620.176 722.388,607.888 728.91,592.508 733.25,581.61 736.786,572.266 741.985,557.676 746.441,544.199 750.366,531.641 753.948,518.929 757.308,506.275 760.887,491.567 764.072,477.121 766.394,465.565 768.541,453.862 770.536,441.862 772.537,428.381 774.287,414.896 775.598,403.312 776.719,391.833 777.862,377.749 778.979,360.396 779.395,349.209 780,332.9 780,30.9 41.101,30.9 41.101,332.9 41.706,349.209 42.122,360.396 43.238,377.749 44.382,391.833 45.503,403.312 46.812,414.896 48.562,428.381 50.562,441.862 52.56,453.862 54.707,465.565 57.028,477.121 60.214,491.567 63.793,506.275 67.15,518.929 70.732,531.641 74.659,544.199 79.115,557.676 84.312,572.266 87.851,581.61 92.188,592.508 98.713,607.888 104.275,620.176 110.096,632.333 117.722,647.319 123.651,658.324 129.661,668.964 136.802,681.007 140.592,687.156 147.25,697.586 153.48,706.95 162.085,719.304 169.495,729.449 178.568,741.326 186.425,751.149 197.178,763.969 204.626,772.457 211.842,780.396 219.716,788.764 232.622,801.848 244.651,813.393 258.271,825.768 271.673,837.278 280.924,844.862 291.673,853.323 303.771,862.415 315.658,870.924 329.093,880.054 345.925,890.79 362.194,900.44 378.389,909.332 387.924,914.221 395.731,918.021 403.438,921.551 410.699,924.5 417.662,921.551 425.367,918.021 433.177,914.221 442.712,909.332 458.906,900.44 475.176,890.79 492.008,880.054 "
   stroke-miterlimit="10" /></svg>